<svg width="512" height="492" viewBox="0 0 512 492" fill="none" xmlns="http://www.w3.org/2000/svg">
<path d="M0.412412 132.169L7.10486 95.5873C8.02322 90.568 12.3933 86.9263 17.4865 86.9263C17.5077 86.9263 17.5182 86.9263 17.5393 86.9263C22.6589 86.9474 27.0132 90.6366 27.8894 95.6771L88.0948 442.543L394.928 442.554C402.28 442.554 409.083 439.513 414.102 433.998C419.855 427.659 423.059 418.206 422.288 410.105C420.04 390.582 405.927 376.405 388.752 376.405H132.688C127.542 376.405 123.14 372.695 122.285 367.612L62.3384 13.2093C61.8212 10.1428 62.6762 7.00775 64.6871 4.63268C66.6875 2.25761 69.6378 0.890625 72.7413 0.890625H328.605C386.974 0.890625 443.954 48.3604 455.634 106.671L510.303 374.352C515.222 405.692 507.59 435.154 488.812 457.327C470.37 479.098 443.332 491.089 412.672 491.089L407.785 491.074C407.69 491.074 407.6 491.079 407.494 491.079C391.164 491.095 78.8637 491.116 75.6072 491.116C63.7899 491.116 53.7196 482.65 51.6295 470.759L0.364936 135.652C0.180208 134.502 0.206572 133.314 0.412412 132.169Z" fill="#4767ED"/>
<path fill-rule="evenodd" clip-rule="evenodd" d="M214.115 187.049C221.766 197.022 226.14 208.778 227.849 216.849L240.338 215.884C238.523 206 233.379 191.715 223.982 179.454C212.803 164.873 199.162 157.755 184.54 158.875L184.452 158.882C173.301 159.744 163.251 165.572 156.874 174.875C150.176 184.655 148.29 196.781 151.7 208.145L163.614 204.552C161.326 196.944 162.643 188.486 167.132 181.933C171.435 175.664 177.918 171.892 185.416 171.313L185.48 171.308C198.417 170.318 208.194 179.319 214.115 187.049Z" fill="white"/>
<path fill-rule="evenodd" clip-rule="evenodd" d="M310.992 267.158C305.618 260.801 301.455 253.012 299.293 245.379L286.689 246.353C288.125 252.332 291.466 262.131 299.045 272.153C295.356 279.591 288.287 287.197 280.571 292.016L280.556 292.011L280.544 292.018C272.17 288.442 264.023 282.011 259.236 275.229C265.185 264.162 266.978 253.966 267.479 247.837L254.875 248.811C253.914 256.686 250.997 265.022 246.663 272.128L244.778 275.225L246.538 278.403C252.695 289.508 265.747 300.111 279.017 304.789L281.595 305.701L281.613 305.697L281.629 305.699L284.035 304.401C296.43 297.74 307.698 285.258 312.076 273.339L313.327 269.929L310.992 267.158Z" fill="white"/>
<path fill-rule="evenodd" clip-rule="evenodd" d="M330.083 178.089C324.054 189.119 321.537 201.407 321.092 209.644L308.603 210.609C308.878 200.564 311.763 185.659 319.169 172.099C327.973 155.975 340.358 146.846 354.978 145.707L355.07 145.7C366.218 144.839 377.041 149.054 384.77 157.268C392.895 165.902 396.621 177.595 394.994 189.347L382.672 187.628C383.762 179.758 381.164 171.603 375.724 165.816C370.506 160.283 363.522 157.552 356.024 158.131L355.96 158.136C343.024 159.145 334.749 169.541 330.083 178.089Z" fill="white"/>
<path fill-rule="evenodd" clip-rule="evenodd" d="M252.792 214.922L265.284 213.957C262.61 199.659 255.994 187.533 250.131 176.792C244.277 166.075 238.753 155.946 238.012 145.488C237.187 133.458 243.08 120.676 253.78 111.278C255.654 109.622 260.975 104.832 265.702 99.7616C271.145 104.046 277.142 107.962 279.248 109.31C291.264 116.953 299.054 128.678 300.087 140.692C300.958 151.14 297.056 161.997 292.92 173.486C288.774 185 284.102 197.998 283.656 212.537L296.144 211.572C296.769 199.547 300.761 188.462 304.624 177.716C309.234 164.913 313.583 152.818 312.486 139.639C311.115 123.76 301.188 108.496 285.92 98.7953C284.12 97.6353 274.747 91.5602 269.238 86.4641L264.323 81.9118L260.168 87.1649C255.501 93.0472 247.173 100.49 245.569 101.913C231.982 113.843 224.514 130.451 225.599 146.352C226.535 159.543 232.694 170.827 239.21 182.77C244.683 192.795 250.328 203.135 252.792 214.922Z" fill="white"/>
<path fill-rule="evenodd" clip-rule="evenodd" d="M205.384 241.6L347.091 230.651L346.17 218.736L204.464 229.685L205.384 241.6Z" fill="white"/>
</svg>
